<svg width="191" height="188" viewBox="0 0 191 188" fill="none" xmlns="http://www.w3.org/2000/svg">
<g filter="url(#filter0_d_1532_74)">
<path d="M84.5 0C96.7429 0 106.701 8.90919 106.992 20H164V78.0059C164.166 78.0026 164.333 78 164.5 78C176.926 78 187 87.1782 187 98.5C187 109.822 176.926 119 164.5 119C164.333 119 164.166 118.996 164 118.993L164 180L107.992 180C107.701 168.909 97.7429 160 85.5 160C73.2571 160 63.2992 168.909 63.0078 180L4 180L4 20L62.0078 20C62.2992 8.90919 72.2571 0 84.5 0Z" fill="#FF6776"/>
</g>
<defs>
<filter id="filter0_d_1532_74" x="0" y="0" width="191" height="188" filterUnits="userSpaceOnUse" color-interpolation-filters="sRGB">
<feFlood flood-opacity="0" result="BackgroundImageFix"/>
<feColorMatrix in="SourceAlpha" type="matrix" values="0 0 0 0 0 0 0 0 0 0 0 0 0 0 0 0 0 0 127 0" result="hardAlpha"/>
<feOffset dy="4"/>
<feGaussianBlur stdDeviation="2"/>
<feComposite in2="hardAlpha" operator="out"/>
<feColorMatrix type="matrix" values="0 0 0 0 0 0 0 0 0 0 0 0 0 0 0 0 0 0 0.25 0"/>
<feBlend mode="normal" in2="BackgroundImageFix" result="effect1_dropShadow_1532_74"/>
<feBlend mode="normal" in="SourceGraphic" in2="effect1_dropShadow_1532_74" result="shape"/>
</filter>
</defs>
</svg>
