<svg width="160" height="160" viewBox="0 0 160 160" fill="none" xmlns="http://www.w3.org/2000/svg">
<path d="M58 0.5C58 11.8218 68.0736 21 80.5 21C92.9264 21 103 11.8218 103 0.5C103 0.332848 102.997 0.166195 102.992 0L160 0V60.0059C147.805 60.2481 138 69.3304 138 80.5C138 91.6696 147.805 100.751 160 100.993V160H102.992C102.701 148.909 92.7429 140 80.5 140C68.2571 140 58.2992 148.909 58.0078 160H0L0 100.993C0.166241 100.996 0.332889 101 0.5 101C12.9264 101 23 91.8218 23 80.5C23 69.1782 12.9264 60 0.5 60C0.332896 60 0.166235 60.0026 0 60.0059L0 0L58.0078 0C58.0034 0.166195 58 0.332848 58 0.5Z" fill="#9DFF64"/>
</svg>
