<svg width="182" height="201" viewBox="0 0 182 201" fill="none" xmlns="http://www.w3.org/2000/svg">
<path d="M99.5 0C111.743 0 121.701 8.90919 121.992 20H182V80.0059C169.805 80.2481 160 89.3304 160 100.5C160 111.67 169.805 120.751 182 120.993V180H124.992C124.997 180.166 125 180.333 125 180.5C125 191.822 114.926 201 102.5 201C90.0736 201 80 191.822 80 180.5C80 180.333 80.0034 180.166 80.0078 180H22V120.993C9.80451 120.751 0 111.67 0 100.5C0 89.3304 9.8045 80.2481 22 80.0059V20H77.0078C77.2992 8.90919 87.257 0 99.5 0Z" fill="#72FFF3"/>
</svg>
