<svg width="168" height="168" viewBox="0 0 168 168" fill="none" xmlns="http://www.w3.org/2000/svg">
<g filter="url(#filter0_d_1532_106)">
<path d="M62 0.5C62 11.8218 72.0736 21 84.5 21C96.9264 21 107 11.8218 107 0.5C107 0.332848 106.997 0.166195 106.992 0L164 0V60.0059C151.805 60.2481 142 69.3304 142 80.5C142 91.6696 151.805 100.751 164 100.993V160H106.992C106.701 148.909 96.7429 140 84.5 140C72.2571 140 62.2992 148.909 62.0078 160L4 160L4 100.993C4.16624 100.996 4.33289 101 4.5 101C16.9264 101 27 91.8218 27 80.5C27 69.1782 16.9264 60 4.5 60C4.3329 60 4.16623 60.0026 4 60.0059L4 0L62.0078 0C62.0034 0.166195 62 0.332848 62 0.5Z" fill="#9DFF64"/>
</g>
<defs>
<filter id="filter0_d_1532_106" x="0" y="0" width="168" height="168" filterUnits="userSpaceOnUse" color-interpolation-filters="sRGB">
<feFlood flood-opacity="0" result="BackgroundImageFix"/>
<feColorMatrix in="SourceAlpha" type="matrix" values="0 0 0 0 0 0 0 0 0 0 0 0 0 0 0 0 0 0 127 0" result="hardAlpha"/>
<feOffset dy="4"/>
<feGaussianBlur stdDeviation="2"/>
<feComposite in2="hardAlpha" operator="out"/>
<feColorMatrix type="matrix" values="0 0 0 0 0 0 0 0 0 0 0 0 0 0 0 0 0 0 0.25 0"/>
<feBlend mode="normal" in2="BackgroundImageFix" result="effect1_dropShadow_1532_106"/>
<feBlend mode="normal" in="SourceGraphic" in2="effect1_dropShadow_1532_106" result="shape"/>
</filter>
</defs>
</svg>
