<svg width="183" height="160" viewBox="0 0 183 160" fill="none" xmlns="http://www.w3.org/2000/svg">
<path d="M58 0.5C58 11.8218 68.0736 21 80.5 21C92.9264 21 103 11.8218 103 0.5C103 0.332848 102.997 0.166195 102.992 0L160 0V60.0059C160.166 60.0026 160.333 60 160.5 60C172.926 60 183 69.1782 183 80.5C183 91.8218 172.926 101 160.5 101C160.333 101 160.166 100.996 160 100.993V160H105.992C105.701 148.909 95.743 140 83.5 140C71.257 140 61.2992 148.909 61.0078 160H0L0 103.993C0.166241 103.996 0.332889 104 0.5 104C12.9264 104 23 94.8218 23 83.5C23 72.1782 12.9264 63 0.5 63C0.332896 63 0.166235 63.0026 0 63.0059L0 0L58.0078 0C58.0034 0.166195 58 0.332848 58 0.5Z" fill="#FFC756"/>
</svg>
